<?xml version="1.0" encoding="utf-8" standalone="no"?>
<!DOCTYPE svg PUBLIC "-//W3C//DTD SVG 1.1//EN"
  "http://www.w3.org/Graphics/SVG/1.1/DTD/svg11.dtd">
<!-- Created with matplotlib (https://matplotlib.org/) -->
<svg height="697.68pt" version="1.1" viewBox="0 0 1152 697.68" width="1152pt" xmlns="http://www.w3.org/2000/svg" xmlns:xlink="http://www.w3.org/1999/xlink">
 <defs>
  <style type="text/css">
*{stroke-linecap:butt;stroke-linejoin:round;}
  </style>
 </defs>
 <g id="figure_1">
  <g id="patch_1">
   <path d="M 0 697.68 
L 1152 697.68 
L 1152 0 
L 0 0 
z
" style="fill:#ffffff;"/>
  </g>
  <g id="axes_1">
   <g id="patch_2">
    <path d="M 75.501467 600.673377 
L 1141.2 600.673377 
L 1141.2 24.637004 
L 75.501467 24.637004 
z
" style="fill:#ffffff;"/>
   </g>
   <g id="matplotlib.axis_1">
    <g id="xtick_1">
     <g id="line2d_1">
      <path clip-path="url(#pb266e856ef)" d="M 75.501467 600.673377 
L 75.501467 24.637004 
" style="fill:none;stroke:#b0b0b0;stroke-linecap:square;stroke-width:0.8;"/>
     </g>
     <g id="line2d_2">
      <defs>
       <path d="M 0 0 
L 0 3.5 
" id="md91ea99c69" style="stroke:#000000;stroke-width:0.8;"/>
      </defs>
      <g>
       <use style="stroke:#000000;stroke-width:0.8;" x="75.501467" xlink:href="#md91ea99c69" y="600.673377"/>
      </g>
     </g>
     <g id="text_1">
      <!-- $0$ -->
      <defs>
       <path d="M 42 31.640625 
C 42 37.75 41.90625 48.125 37.703125 56.109375 
C 34 63.109375 28.09375 65.59375 22.90625 65.59375 
C 18.09375 65.59375 12 63.40625 8.203125 56.203125 
C 4.203125 48.71875 3.796875 39.4375 3.796875 31.640625 
C 3.796875 25.953125 3.90625 17.28125 7 9.671875 
C 11.296875 -0.609375 19 -2 22.90625 -2 
C 27.5 -2 34.5 -0.109375 38.59375 9.375 
C 41.59375 16.28125 42 24.359375 42 31.640625 
z
M 22.90625 -0.40625 
C 16.5 -0.40625 12.703125 5.078125 11.296875 12.6875 
C 10.203125 18.5625 10.203125 27.15625 10.203125 32.75 
C 10.203125 40.4375 10.203125 46.828125 11.5 52.921875 
C 13.40625 61.390625 19 64 22.90625 64 
C 27 64 32.296875 61.296875 34.203125 53.125 
C 35.5 47.4375 35.59375 40.734375 35.59375 32.75 
C 35.59375 26.25 35.59375 18.265625 34.40625 12.375 
C 32.296875 1.484375 26.40625 -0.40625 22.90625 -0.40625 
z
" id="CMR17-48"/>
      </defs>
      <g transform="translate(66.363371 635.347386)scale(0.4 -0.4)">
       <use transform="scale(0.996264)" xlink:href="#CMR17-48"/>
      </g>
     </g>
    </g>
    <g id="xtick_2">
     <g id="line2d_3">
      <path clip-path="url(#pb266e856ef)" d="M 288.645436 600.673377 
L 288.645436 24.637004 
" style="fill:none;stroke:#b0b0b0;stroke-linecap:square;stroke-width:0.8;"/>
     </g>
     <g id="line2d_4">
      <g>
       <use style="stroke:#000000;stroke-width:0.8;" x="288.645436" xlink:href="#md91ea99c69" y="600.673377"/>
      </g>
     </g>
     <g id="text_2">
      <!-- $1$ -->
      <defs>
       <path d="M 26.59375 63.40625 
C 26.59375 65.5 26.5 65.5 25.09375 65.5 
C 21.203125 61.1875 15.296875 59.796875 9.703125 59.796875 
C 9.40625 59.796875 8.90625 59.796875 8.796875 59.5 
C 8.703125 59.296875 8.703125 59.09375 8.703125 57 
C 11.796875 57 17 57.59375 21 59.984375 
L 21 7.203125 
C 21 3.6875 20.796875 2.5 12.203125 2.5 
L 9.203125 2.5 
L 9.203125 0 
C 14 0 19 0 23.796875 0 
C 28.59375 0 33.59375 0 38.40625 0 
L 38.40625 2.5 
L 35.40625 2.5 
C 26.796875 2.5 26.59375 3.59375 26.59375 7.15625 
z
" id="CMR17-49"/>
      </defs>
      <g transform="translate(279.507341 635.347386)scale(0.4 -0.4)">
       <use transform="scale(0.996264)" xlink:href="#CMR17-49"/>
      </g>
     </g>
    </g>
    <g id="xtick_3">
     <g id="line2d_5">
      <path clip-path="url(#pb266e856ef)" d="M 501.789406 600.673377 
L 501.789406 24.637004 
" style="fill:none;stroke:#b0b0b0;stroke-linecap:square;stroke-width:0.8;"/>
     </g>
     <g id="line2d_6">
      <g>
       <use style="stroke:#000000;stroke-width:0.8;" x="501.789406" xlink:href="#md91ea99c69" y="600.673377"/>
      </g>
     </g>
     <g id="text_3">
      <!-- $2$ -->
      <defs>
       <path d="M 41.703125 15.453125 
L 39.90625 15.453125 
C 38.90625 8.375 38.09375 7.171875 37.703125 6.5625 
C 37.203125 5.765625 30 5.765625 28.59375 5.765625 
L 9.40625 5.765625 
C 13 9.671875 20 16.75 28.5 24.953125 
C 34.59375 30.734375 41.703125 37.53125 41.703125 47.421875 
C 41.703125 59.21875 32.296875 66 21.796875 66 
C 10.796875 66 4.09375 56.3125 4.09375 47.34375 
C 4.09375 43.4375 7 42.9375 8.203125 42.9375 
C 9.203125 42.9375 12.203125 43.546875 12.203125 47.03125 
C 12.203125 50.109375 9.59375 51 8.203125 51 
C 7.59375 51 7 50.90625 6.59375 50.703125 
C 8.5 59.21875 14.296875 63.40625 20.40625 63.40625 
C 29.09375 63.40625 34.796875 56.515625 34.796875 47.421875 
C 34.796875 38.734375 29.703125 31.25 24 24.75 
L 4.09375 2.28125 
L 4.09375 0 
L 39.296875 0 
z
" id="CMR17-50"/>
      </defs>
      <g transform="translate(492.65131 635.347386)scale(0.4 -0.4)">
       <use transform="scale(0.996264)" xlink:href="#CMR17-50"/>
      </g>
     </g>
    </g>
    <g id="xtick_4">
     <g id="line2d_7">
      <path clip-path="url(#pb266e856ef)" d="M 714.933375 600.673377 
L 714.933375 24.637004 
" style="fill:none;stroke:#b0b0b0;stroke-linecap:square;stroke-width:0.8;"/>
     </g>
     <g id="line2d_8">
      <g>
       <use style="stroke:#000000;stroke-width:0.8;" x="714.933375" xlink:href="#md91ea99c69" y="600.673377"/>
      </g>
     </g>
     <g id="text_4">
      <!-- $3$ -->
      <defs>
       <path d="M 22.09375 33.703125 
C 31 33.703125 34.90625 25.96875 34.90625 17.03125 
C 34.90625 5 28.5 0.390625 22.703125 0.390625 
C 17.40625 0.390625 8.796875 3.03125 6.09375 10.828125 
C 6.59375 10.625 7.09375 10.625 7.59375 10.625 
C 10 10.625 11.796875 12.21875 11.796875 14.8125 
C 11.796875 17.703125 9.59375 19 7.59375 19 
C 5.90625 19 3.296875 18.203125 3.296875 14.46875 
C 3.296875 5.234375 12.296875 -2 22.90625 -2 
C 34 -2 42.5 6.71875 42.5 16.953125 
C 42.5 26.671875 34.5 33.703125 25 34.796875 
C 32.59375 36.375 39.90625 43.0625 39.90625 52.015625 
C 39.90625 59.6875 32 65.296875 23 65.296875 
C 13.90625 65.296875 5.90625 59.828125 5.90625 52.015625 
C 5.90625 48.59375 8.5 48 9.796875 48 
C 11.90625 48 13.703125 49.296875 13.703125 51.890625 
C 13.703125 54.46875 11.90625 55.765625 9.796875 55.765625 
C 9.40625 55.765625 8.90625 55.765625 8.5 55.578125 
C 11.40625 61.859375 19.296875 63 22.796875 63 
C 26.296875 63 32.90625 61.328125 32.90625 51.875 
C 32.90625 49.109375 32.5 44.1875 29.09375 39.84375 
C 26.09375 36 22.703125 36 19.40625 35.6875 
C 18.90625 35.6875 16.59375 35.453125 16.203125 35.453125 
C 15.5 35.359375 15.09375 35.265625 15.09375 34.5 
C 15.09375 33.796875 15.203125 33.703125 17.203125 33.703125 
z
" id="CMR17-51"/>
      </defs>
      <g transform="translate(705.79528 635.347386)scale(0.4 -0.4)">
       <use transform="scale(0.996264)" xlink:href="#CMR17-51"/>
      </g>
     </g>
    </g>
    <g id="xtick_5">
     <g id="line2d_9">
      <path clip-path="url(#pb266e856ef)" d="M 928.077345 600.673377 
L 928.077345 24.637004 
" style="fill:none;stroke:#b0b0b0;stroke-linecap:square;stroke-width:0.8;"/>
     </g>
     <g id="line2d_10">
      <g>
       <use style="stroke:#000000;stroke-width:0.8;" x="928.077345" xlink:href="#md91ea99c69" y="600.673377"/>
      </g>
     </g>
     <g id="text_5">
      <!-- $4$ -->
      <defs>
       <path d="M 33.59375 64.40625 
C 33.59375 66.5 33.5 66.5 31.703125 66.5 
L 2 19.59375 
L 2 17 
L 27.796875 17 
L 27.796875 7.140625 
C 27.796875 3.5 27.59375 2.5 20.59375 2.5 
L 18.703125 2.5 
L 18.703125 0 
C 21.90625 0 27.296875 0 30.703125 0 
C 34.09375 0 39.5 0 42.703125 0 
L 42.703125 2.5 
L 40.796875 2.5 
C 33.796875 2.5 33.59375 3.5 33.59375 7.140625 
L 33.59375 17 
L 43.796875 17 
L 43.796875 19.59375 
L 33.59375 19.59375 
z
M 28.09375 57.859375 
L 28.09375 19.59375 
L 4 19.59375 
z
" id="CMR17-52"/>
      </defs>
      <g transform="translate(918.939249 635.347386)scale(0.4 -0.4)">
       <use transform="scale(0.996264)" xlink:href="#CMR17-52"/>
      </g>
     </g>
    </g>
    <g id="text_6">
     <!-- Time $[t]$ -->
     <defs>
      <path d="M 36.203125 62 
L 44.5 62 
C 45.703125 62 46.90625 62 48.09375 62 
L 60.59375 62 
L 60.59375 68.375 
L 3.40625 68.375 
L 3.40625 62 
L 15.90625 62 
C 17.09375 62 18.296875 62 19.5 62 
L 27.796875 62 
L 27.796875 -0.5 
L 36.203125 -0.5 
z
" id="CMSS17-84"/>
      <path d="M 15.296875 65.359375 
L 6.90625 65.359375 
L 6.90625 57 
L 15.296875 57 
z
M 14.796875 42.796875 
L 7.40625 42.796875 
L 7.40625 0 
L 14.796875 0 
z
" id="CMSS17-105"/>
      <path d="M 67 29.328125 
C 67 36.0625 65.296875 44 54.09375 44 
C 46.59375 44 42.09375 39.3125 40.09375 36.421875 
C 38.296875 41.71875 34.09375 44 28.09375 44 
C 21.296875 44 17 40.125 14.703125 37.328125 
L 14.703125 43.09375 
L 7.40625 43.09375 
L 7.40625 0 
L 15 0 
L 15 24.359375 
C 15 30.296875 17.203125 37.9375 24.296875 37.9375 
C 33.40625 37.9375 33.40625 31.5 33.40625 28.578125 
L 33.40625 0 
L 41 0 
L 41 24.359375 
C 41 30.296875 43.203125 37.9375 50.296875 37.9375 
C 59.40625 37.9375 59.40625 31.5 59.40625 28.578125 
L 59.40625 0 
L 67 0 
z
" id="CMSS17-109"/>
      <path d="M 39.09375 21.515625 
C 39.09375 24.84375 38.90625 31.296875 35.703125 36.640625 
C 32.203125 42.390625 26.5 44 22.203125 44 
C 11.796875 44 3 34.1875 3 21.484375 
C 3 9.09375 12.09375 -1 23.59375 -1 
C 28.09375 -1 33.59375 0.296875 38.59375 3.875 
C 38.59375 4.28125 38.40625 6.46875 38.296875 6.5625 
C 38.296875 6.765625 38 9.84375 38 10.25 
C 33.203125 6.359375 27.703125 5.078125 23.703125 5.078125 
C 17.296875 5.078125 10.40625 10.421875 10.09375 21.515625 
z
M 10.90625 27 
C 12.203125 32.5625 16.59375 37.828125 22.203125 37.828125 
C 23.703125 37.828125 30.703125 37.828125 32.5 27 
z
" id="CMSS17-101"/>
      <path d="M 23.5 -25 
L 23.5 -21.515625 
L 14.09375 -21.515625 
L 14.09375 71 
L 23.5 71 
L 23.5 74.484375 
L 10.59375 74.484375 
L 10.59375 -25 
z
" id="CMR17-91"/>
      <path d="M 20.09375 40.09375 
L 29.296875 40.09375 
C 31.203125 40.09375 32.203125 40.09375 32.203125 41.890625 
C 32.203125 43 31.59375 43 29.59375 43 
L 20.796875 43 
L 24.5 57.6875 
C 24.90625 59.078125 24.90625 59.28125 24.90625 60 
C 24.90625 61.609375 23.59375 62.5 22.296875 62.5 
C 21.5 62.5 19.203125 62.203125 18.40625 58.984375 
L 14.5 43 
L 5.09375 43 
C 3.09375 43 2.203125 43 2.203125 41.09375 
C 2.203125 40.09375 2.90625 40.09375 4.796875 40.09375 
L 13.703125 40.09375 
L 7.09375 13.765625 
C 6.296875 10.28125 6 9.28125 6 7.984375 
C 6 3.296875 9.296875 -1 14.90625 -1 
C 25 -1 30.40625 13.5625 30.40625 14.25 
C 30.40625 14.859375 30 15.15625 29.40625 15.15625 
C 29.203125 15.15625 28.796875 15.15625 28.59375 14.75 
C 28.5 14.65625 28.40625 14.546875 27.703125 12.953125 
C 25.59375 7.984375 21 1 15.203125 1 
C 12.203125 1 12 3.5 12 5.6875 
C 12 5.78125 12 7.6875 12.296875 8.875 
z
" id="CMMI12-116"/>
      <path d="M 14.296875 74.484375 
L 1.40625 74.484375 
L 1.40625 71 
L 10.796875 71 
L 10.796875 -21.515625 
L 1.40625 -21.515625 
L 1.40625 -25 
L 14.296875 -25 
z
" id="CMR17-93"/>
     </defs>
     <g transform="translate(544.737575 676.950697)scale(0.4 -0.4)">
      <use transform="scale(0.996264)" xlink:href="#CMSS17-84"/>
      <use transform="translate(63.819454 0)scale(0.996264)" xlink:href="#CMSS17-105"/>
      <use transform="translate(86.000177 0)scale(0.996264)" xlink:href="#CMSS17-109"/>
      <use transform="translate(160.229431 0)scale(0.996264)" xlink:href="#CMSS17-101"/>
      <use transform="translate(233.097366 0)scale(0.996264)" xlink:href="#CMR17-91"/>
      <use transform="translate(257.968425 0)scale(0.996264)" xlink:href="#CMMI12-116"/>
      <use transform="translate(293.194755 0)scale(0.996264)" xlink:href="#CMR17-93"/>
     </g>
    </g>
    <g id="text_7">
     <!-- $\times10^{4}$ -->
     <defs>
      <path d="M 38.90625 27.890625 
L 18.90625 47.796875 
C 17.703125 49 17.5 49.1875 16.703125 49.1875 
C 15.703125 49.1875 14.703125 48.296875 14.703125 47.1875 
C 14.703125 46.5 14.90625 46.296875 16 45.1875 
L 36 25.09375 
L 16 5 
C 14.90625 3.890625 14.703125 3.6875 14.703125 3 
C 14.703125 1.890625 15.703125 1 16.703125 1 
C 17.5 1 17.703125 1.1875 18.90625 2.390625 
L 38.796875 22.296875 
L 59.5 1.59375 
C 59.703125 1.5 60.40625 1 61 1 
C 62.203125 1 63 1.890625 63 3 
C 63 3.1875 63 3.59375 62.703125 4.09375 
C 62.59375 4.296875 46.703125 20 41.703125 25.09375 
L 60 43.390625 
C 60.5 44 62 45.296875 62.5 45.890625 
C 62.59375 46.09375 63 46.5 63 47.1875 
C 63 48.296875 62.203125 49.1875 61 49.1875 
C 60.203125 49.1875 59.796875 48.796875 58.703125 47.6875 
z
" id="CMSY10-2"/>
     </defs>
     <g transform="translate(1060.859355 674.111343)scale(0.4 -0.4)">
      <use transform="scale(0.996264)" xlink:href="#CMSY10-2"/>
      <use transform="translate(77.487468 0)scale(0.996264)" xlink:href="#CMR17-49"/>
      <use transform="translate(123.177945 0)scale(0.996264)" xlink:href="#CMR17-48"/>
      <use transform="translate(168.868422 36.153639)scale(0.697382)" xlink:href="#CMR17-52"/>
     </g>
    </g>
   </g>
   <g id="matplotlib.axis_2">
    <g id="ytick_1">
     <g id="line2d_11">
      <path clip-path="url(#pb266e856ef)" d="M 75.501467 600.673377 
L 1141.2 600.673377 
" style="fill:none;stroke:#b0b0b0;stroke-linecap:square;stroke-width:0.8;"/>
     </g>
     <g id="line2d_12">
      <defs>
       <path d="M 0 0 
L -3.5 0 
" id="me10de3e5d6" style="stroke:#000000;stroke-width:0.8;"/>
      </defs>
      <g>
       <use style="stroke:#000000;stroke-width:0.8;" x="75.501467" xlink:href="#me10de3e5d6" y="600.673377"/>
      </g>
     </g>
     <g id="text_8">
      <!-- $0$ -->
      <g transform="translate(50.225276 614.510382)scale(0.4 -0.4)">
       <use transform="scale(0.996264)" xlink:href="#CMR17-48"/>
      </g>
     </g>
    </g>
    <g id="ytick_2">
     <g id="line2d_13">
      <path clip-path="url(#pb266e856ef)" d="M 75.501467 24.637004 
L 1141.2 24.637004 
" style="fill:none;stroke:#b0b0b0;stroke-linecap:square;stroke-width:0.8;"/>
     </g>
     <g id="line2d_14">
      <g>
       <use style="stroke:#000000;stroke-width:0.8;" x="75.501467" xlink:href="#me10de3e5d6" y="24.637004"/>
      </g>
     </g>
     <g id="text_9">
      <!-- $1$ -->
      <g transform="translate(50.225276 38.474009)scale(0.4 -0.4)">
       <use transform="scale(0.996264)" xlink:href="#CMR17-49"/>
      </g>
     </g>
    </g>
    <g id="text_10">
     <!-- Triggering Event in Community 1 -->
     <defs>
      <path d="M 14.90625 21.296875 
C 14.90625 30.703125 21.796875 37 30.59375 37 
L 30.59375 43.578125 
C 24.203125 43.578125 18.203125 40.390625 14.59375 35.203125 
L 14.59375 43.09375 
L 7.5 43.09375 
L 7.5 0 
L 14.90625 0 
z
" id="CMSS17-114"/>
      <path d="M 44.5 43.875 
C 38.796875 43.875 33.90625 42.78125 29.90625 40.890625 
C 26.59375 43.390625 23.203125 43.875 20.90625 43.875 
C 12.203125 43.875 5.59375 36.703125 5.59375 28.34375 
C 5.59375 22.9375 8.59375 18.859375 8.796875 18.671875 
C 7 16.171875 6 13.484375 6 10.5 
C 6 7 7.40625 4.515625 8.5 3.125 
C 3.296875 -0.046875 2.59375 -4.90625 2.59375 -6.796875 
C 2.59375 -14.03125 11.703125 -20 23.40625 -20 
C 35.203125 -20 44.296875 -14.03125 44.296875 -6.6875 
C 44.296875 7 29 7 24.796875 7 
L 16.703125 7 
C 15.203125 7 11.203125 7 11.203125 12.359375 
C 11.203125 14.390625 12.09375 15.6875 12.203125 15.78125 
C 13.703125 14.6875 16.796875 13 20.90625 13 
C 29.203125 13 36.09375 19.96875 36.09375 28.546875 
C 36.09375 33.3125 33.90625 36.796875 33 38 
L 33.296875 38 
C 33.59375 38 37.796875 38 39.296875 38 
C 42.5 38 42.796875 37.953125 45.59375 37.796875 
z
M 20.90625 18.46875 
C 17.5 18.46875 12.703125 20.546875 12.703125 28.484375 
C 12.703125 37.109375 18.203125 38.5 20.796875 38.5 
C 24.203125 38.5 29 36.421875 29 28.484375 
C 29 19.859375 23.5 18.46875 20.90625 18.46875 
z
M 24.703125 -0.15625 
C 27.09375 -0.15625 37.203125 -0.15625 37.203125 -6.90625 
C 37.203125 -11.15625 31 -14.515625 23.5 -14.515625 
C 15.90625 -14.515625 9.703125 -11.25 9.703125 -6.796875 
C 9.703125 -6.296875 9.703125 -0.15625 16.59375 -0.15625 
z
" id="CMSS17-103"/>
      <path d="M 40.90625 29.328125 
C 40.90625 35.671875 39.40625 44 28.09375 44 
C 21.703125 44 17.5 40.71875 14.703125 37.328125 
L 14.703125 43.09375 
L 7.40625 43.09375 
L 7.40625 0 
L 15 0 
L 15 24.359375 
C 15 30.6875 17.40625 37.9375 24.203125 37.9375 
C 33 37.9375 33.296875 32 33.296875 28.578125 
L 33.296875 0 
L 40.90625 0 
z
" id="CMSS17-110"/>
      <path d="M 30.59375 6.765625 
C 22.59375 6.765625 19 6.765625 17.203125 6.765625 
L 17.203125 32.921875 
L 48.203125 32.921875 
L 48.203125 39 
L 17.203125 39 
L 17.203125 62.640625 
L 30.09375 62.640625 
C 31.296875 62.640625 32.5 62.640625 33.703125 62.640625 
L 50.796875 62.640625 
L 50.796875 69 
L 8.796875 69 
L 8.796875 0 
L 52.09375 0 
L 52.09375 6.765625 
z
" id="CMSS17-69"/>
      <path d="M 41.796875 43 
L 34 43 
L 27.296875 24.3125 
C 25.203125 18.203125 22.203125 9.796875 21.703125 5.5 
L 21.59375 5.5 
C 21.40625 7.3125 20.59375 9.90625 20.09375 11.703125 
C 19.5 13.90625 18.703125 16.5 18.09375 18.3125 
L 9.296875 43 
L 1.296875 43 
L 17.09375 0 
L 26 0 
z
" id="CMSS17-118"/>
      <path d="M 16.703125 37 
L 29.703125 37 
L 29.703125 42.765625 
L 16.703125 42.765625 
L 16.703125 55 
L 9.59375 55 
L 9.59375 42.765625 
L 1.703125 42.765625 
L 1.703125 37 
L 9.40625 37 
L 9.40625 11.703125 
C 9.40625 6 10.703125 -1 17.296875 -1 
C 22.296875 -1 26.90625 0.390625 31.296875 2.6875 
L 29.703125 8.5625 
C 27.296875 6.46875 24.40625 5.265625 21.296875 5.265625 
C 16.90625 5.265625 16.703125 10.875 16.703125 13.375 
z
" id="CMSS17-116"/>
      <path d="M 54.703125 11.15625 
C 48 6.671875 44.90625 5.375 36.796875 5.375 
C 22.796875 5.375 14.59375 20.359375 14.59375 34.046875 
C 14.59375 48.625 23 63 37.203125 63 
C 43.59375 63 47.796875 61.21875 52.90625 58.046875 
L 54.296875 65.890625 
C 49.5 68.28125 43.40625 69.375 37.296875 69.375 
C 18.09375 69.375 6.203125 51.8125 6.203125 34.046875 
C 6.203125 14.484375 20.296875 -1 36.296875 -1 
C 44.90625 -1 47.90625 -0.296875 55.296875 4.375 
z
" id="CMSS17-67"/>
      <path d="M 44.203125 21.1875 
C 44.203125 34 34.703125 44 23.5 44 
C 12 44 2.703125 33.703125 2.703125 21.1875 
C 2.703125 8.5 12.296875 -1 23.40625 -1 
C 34.796875 -1 44.203125 8.796875 44.203125 21.1875 
z
M 23.5 5.265625 
C 16.40625 5.265625 10.296875 11.078125 10.296875 22 
C 10.296875 33.609375 17.40625 37.921875 23.40625 37.921875 
C 29.90625 37.921875 36.59375 33.21875 36.59375 22 
C 36.59375 10.671875 30.09375 5.265625 23.5 5.265625 
z
" id="CMSS17-111"/>
      <path d="M 40.90625 42.796875 
L 33.296875 42.796875 
L 33.296875 15.1875 
C 33.296875 7.78125 27.90625 4.78125 22.203125 4.78125 
C 15.59375 4.78125 15 6.984375 15 11.078125 
L 15 42.796875 
L 7.40625 42.796875 
L 7.40625 10.59375 
C 7.40625 2.796875 10.09375 -1 17 -1 
C 20.40625 -1 28.09375 -0.203125 33.5 4.78125 
L 33.5 0 
L 40.90625 0 
z
" id="CMSS17-117"/>
      <path d="M 41.796875 43 
L 34 43 
C 25.5 20.21875 22.59375 10.96875 22.40625 5.984375 
L 22.296875 5.984375 
C 22 10.875 17.59375 22.8125 14.09375 31.359375 
L 9.40625 43 
L 1.296875 43 
L 19 0.203125 
C 17.90625 -2.78125 16.296875 -7.265625 15.796875 -8.265625 
C 13.59375 -13.828125 12.09375 -13.828125 10.5 -13.828125 
C 10.09375 -13.828125 6.90625 -13.828125 3.296875 -12.640625 
L 3.90625 -19.203125 
C 6.40625 -19.703125 8.90625 -20 10.703125 -20 
C 13.203125 -20 18.203125 -20 22.796875 -7.765625 
z
" id="CMSS17-121"/>
      <path d="M 28.40625 67 
L 26.5 67 
C 21.09375 61.5625 14.796875 60.78125 8.40625 60.78125 
L 8.40625 55 
C 11.296875 55 16 55 20.703125 57.296875 
L 20.703125 5.765625 
L 8.90625 5.765625 
L 8.90625 0 
L 40.203125 0 
L 40.203125 5.765625 
L 28.40625 5.765625 
z
" id="CMSS17-49"/>
     </defs>
     <g transform="translate(38.474009 574.106899)rotate(-90)scale(0.4 -0.4)">
      <use transform="scale(0.996264)" xlink:href="#CMSS17-84"/>
      <use transform="translate(56.012199 0)scale(0.996264)" xlink:href="#CMSS17-114"/>
      <use transform="translate(87.921971 0)scale(0.996264)" xlink:href="#CMSS17-105"/>
      <use transform="translate(110.102694 0)scale(0.996264)" xlink:href="#CMSS17-103"/>
      <use transform="translate(156.946318 0)scale(0.996264)" xlink:href="#CMSS17-103"/>
      <use transform="translate(203.789941 0)scale(0.996264)" xlink:href="#CMSS17-101"/>
      <use transform="translate(245.428763 0)scale(0.996264)" xlink:href="#CMSS17-114"/>
      <use transform="translate(277.338536 0)scale(0.996264)" xlink:href="#CMSS17-105"/>
      <use transform="translate(299.519259 0)scale(0.996264)" xlink:href="#CMSS17-110"/>
      <use transform="translate(347.724202 0)scale(0.996264)" xlink:href="#CMSS17-103"/>
      <use transform="translate(425.796938 0)scale(0.996264)" xlink:href="#CMSS17-69"/>
      <use transform="translate(481.688951 0)scale(0.996264)" xlink:href="#CMSS17-118"/>
      <use transform="translate(524.689093 0)scale(0.996264)" xlink:href="#CMSS17-101"/>
      <use transform="translate(566.327915 0)scale(0.996264)" xlink:href="#CMSS17-110"/>
      <use transform="translate(614.532858 0)scale(0.996264)" xlink:href="#CMSS17-116"/>
      <use transform="translate(679.593538 0)scale(0.996264)" xlink:href="#CMSS17-105"/>
      <use transform="translate(701.774261 0)scale(0.996264)" xlink:href="#CMSS17-110"/>
      <use transform="translate(781.208317 0)scale(0.996264)" xlink:href="#CMSS17-67"/>
      <use transform="translate(841.064088 0)scale(0.996264)" xlink:href="#CMSS17-111"/>
      <use transform="translate(887.907712 0)scale(0.996264)" xlink:href="#CMSS17-109"/>
      <use transform="translate(962.136966 0)scale(0.996264)" xlink:href="#CMSS17-109"/>
      <use transform="translate(1036.366221 0)scale(0.996264)" xlink:href="#CMSS17-117"/>
      <use transform="translate(1084.571164 0)scale(0.996264)" xlink:href="#CMSS17-110"/>
      <use transform="translate(1132.776107 0)scale(0.996264)" xlink:href="#CMSS17-105"/>
      <use transform="translate(1154.95683 0)scale(0.996264)" xlink:href="#CMSS17-116"/>
      <use transform="translate(1186.185943 0)scale(0.996264)" xlink:href="#CMSS17-121"/>
      <use transform="translate(1260.415197 0)scale(0.996264)" xlink:href="#CMSS17-49"/>
     </g>
    </g>
   </g>
   <g id="line2d_15">
    <path clip-path="url(#pb266e856ef)" d="M 75.501467 600.673377 
L 694.769956 600.673377 
L 694.79127 24.637004 
L 694.876528 600.673377 
L 1141.2 600.673377 
L 1141.2 600.673377 
" style="fill:none;stroke:#1f77b4;stroke-linecap:square;stroke-width:2;"/>
   </g>
   <g id="line2d_16">
    <path clip-path="url(#pb266e856ef)" d="M 75.501467 600.673377 
L 91.380693 600.673377 
L 91.402007 24.637004 
L 91.487265 600.673377 
L 109.945532 600.673377 
L 109.966847 24.637004 
L 110.052104 600.673377 
L 131.814104 600.673377 
L 131.835418 24.637004 
L 131.920676 600.673377 
L 157.902925 600.673377 
L 157.92424 24.637004 
L 158.009497 600.673377 
L 189.597434 600.673377 
L 189.618748 24.637004 
L 189.704006 600.673377 
L 229.284841 600.673377 
L 229.306155 24.637004 
L 229.391413 600.673377 
L 281.228026 600.673377 
L 281.249341 24.637004 
L 281.334598 600.673377 
L 354.613495 600.673377 
L 354.634809 24.637004 
L 354.720067 600.673377 
L 473.654402 600.673377 
L 473.675716 24.637004 
L 473.760974 600.673377 
L 743.111008 600.673377 
L 743.132323 24.637004 
L 743.21758 600.673377 
L 1141.2 600.673377 
L 1141.2 600.673377 
" style="fill:none;stroke:#ff7f0e;stroke-linecap:square;stroke-width:2;"/>
   </g>
   <g id="line2d_17">
    <path clip-path="url(#pb266e856ef)" d="M 75.501467 600.673377 
L 92.936643 600.673377 
L 92.957958 24.637004 
L 93.043215 600.673377 
L 112.737718 600.673377 
L 112.759033 24.637004 
L 112.84429 600.673377 
L 135.458865 600.673377 
L 135.48018 24.637004 
L 135.565437 600.673377 
L 161.952661 600.673377 
L 161.973975 24.637004 
L 162.059233 600.673377 
L 193.391396 600.673377 
L 193.412711 24.637004 
L 193.497968 600.673377 
L 231.842568 600.673377 
L 231.863883 24.637004 
L 231.94914 600.673377 
L 280.588594 600.673377 
L 280.609909 24.637004 
L 280.695166 600.673377 
L 345.853278 600.673377 
L 345.874592 24.637004 
L 345.95985 600.673377 
L 440.574458 600.673377 
L 440.595772 24.637004 
L 440.68103 600.673377 
L 598.769912 600.673377 
L 598.791226 24.637004 
L 598.876484 600.673377 
L 972.198147 600.673377 
L 972.219461 24.637004 
L 972.304719 600.673377 
L 1141.2 600.673377 
L 1141.2 600.673377 
" style="fill:none;stroke:#2ca02c;stroke-linecap:square;stroke-width:2;"/>
   </g>
   <g id="line2d_18">
    <path clip-path="url(#pb266e856ef)" d="M 75.501467 600.673377 
L 148.71642 600.673377 
L 148.737735 24.637004 
L 148.822992 600.673377 
L 264.538853 600.673377 
L 264.560168 24.637004 
L 264.645425 600.673377 
L 525.51233 600.673377 
L 525.533644 24.637004 
L 525.618902 600.673377 
L 1141.2 600.673377 
L 1141.2 600.673377 
" style="fill:none;stroke:#d62728;stroke-linecap:square;stroke-width:2;"/>
   </g>
   <g id="line2d_19">
    <path clip-path="url(#pb266e856ef)" d="M 75.501467 600.673377 
L 319.721827 600.673377 
L 319.743141 24.637004 
L 319.828399 600.673377 
L 624.709533 600.673377 
L 624.730847 24.637004 
L 624.816105 600.673377 
L 1141.2 600.673377 
L 1141.2 600.673377 
" style="fill:none;stroke:#9467bd;stroke-linecap:square;stroke-width:2;"/>
   </g>
   <g id="line2d_20">
    <path clip-path="url(#pb266e856ef)" d="M 75.501467 600.673377 
L 105.235051 600.673377 
L 105.256365 24.637004 
L 105.341623 600.673377 
L 141.597412 600.673377 
L 141.618726 24.637004 
L 141.703984 600.673377 
L 187.338108 600.673377 
L 187.359422 24.637004 
L 187.44468 600.673377 
L 247.657851 600.673377 
L 247.679165 24.637004 
L 247.764423 600.673377 
L 333.789329 600.673377 
L 333.810643 24.637004 
L 333.895901 600.673377 
L 476.340016 600.673377 
L 476.36133 24.637004 
L 476.446588 600.673377 
L 823.594171 600.673377 
L 823.615485 24.637004 
L 823.700743 600.673377 
L 1141.2 600.673377 
L 1141.2 600.673377 
" style="fill:none;stroke:#8c564b;stroke-linecap:square;stroke-width:2;"/>
   </g>
   <g id="line2d_21">
    <path clip-path="url(#pb266e856ef)" d="M 75.501467 600.673377 
L 95.750144 600.673377 
L 95.771458 24.637004 
L 95.856716 600.673377 
L 120.197757 600.673377 
L 120.219072 24.637004 
L 120.304329 600.673377 
L 150.037913 600.673377 
L 150.059227 24.637004 
L 150.144485 600.673377 
L 187.188907 600.673377 
L 187.210221 24.637004 
L 187.295479 600.673377 
L 234.997099 600.673377 
L 235.018414 24.637004 
L 235.103671 600.673377 
L 300.155211 600.673377 
L 300.176525 24.637004 
L 300.261783 600.673377 
L 398.968755 600.673377 
L 398.990069 24.637004 
L 399.075327 600.673377 
L 587.068308 600.673377 
L 587.089622 24.637004 
L 587.17488 600.673377 
L 1141.2 600.673377 
L 1141.2 600.673377 
" style="fill:none;stroke:#e377c2;stroke-linecap:square;stroke-width:2;"/>
   </g>
   <g id="line2d_22">
    <path clip-path="url(#pb266e856ef)" d="M 75.501467 600.673377 
L 114.762586 600.673377 
L 114.7839 24.637004 
L 114.869158 600.673377 
L 171.629397 600.673377 
L 171.650711 24.637004 
L 171.735969 600.673377 
L 263.963365 600.673377 
L 263.984679 24.637004 
L 264.069937 600.673377 
L 465.576245 600.673377 
L 465.59756 24.637004 
L 465.682817 600.673377 
L 1141.2 600.673377 
L 1141.2 600.673377 
" style="fill:none;stroke:#7f7f7f;stroke-linecap:square;stroke-width:2;"/>
   </g>
   <g id="line2d_23">
    <path clip-path="url(#pb266e856ef)" d="M 75.501467 600.673377 
L 550.76989 600.673377 
L 550.791204 24.637004 
L 550.876462 600.673377 
L 1141.2 600.673377 
L 1141.2 600.673377 
" style="fill:none;stroke:#bcbd22;stroke-linecap:square;stroke-width:2;"/>
   </g>
   <g id="line2d_24">
    <path clip-path="url(#pb266e856ef)" d="M 75.501467 600.673377 
L 143.08942 600.673377 
L 143.110734 24.637004 
L 143.195992 600.673377 
L 322.492699 600.673377 
L 322.514013 24.637004 
L 322.599271 600.673377 
L 1141.2 600.673377 
L 1141.2 600.673377 
" style="fill:none;stroke:#17becf;stroke-linecap:square;stroke-width:2;"/>
   </g>
   <g id="line2d_25">
    <path clip-path="url(#pb266e856ef)" d="M 75.501467 600.673377 
L 90.506802 600.673377 
L 90.528117 24.637004 
L 90.613374 600.673377 
L 107.792778 600.673377 
L 107.814093 24.637004 
L 107.89935 600.673377 
L 127.828311 600.673377 
L 127.849626 24.637004 
L 127.934883 600.673377 
L 151.252834 600.673377 
L 151.274148 24.637004 
L 151.359406 600.673377 
L 179.025493 600.673377 
L 179.046807 24.637004 
L 179.132065 600.673377 
L 212.574354 600.673377 
L 212.595668 24.637004 
L 212.680926 600.673377 
L 254.265314 600.673377 
L 254.286628 24.637004 
L 254.371886 600.673377 
L 308.446511 600.673377 
L 308.467825 24.637004 
L 308.553083 600.673377 
L 384.091306 600.673377 
L 384.11262 24.637004 
L 384.197878 600.673377 
L 503.920846 600.673377 
L 503.94216 24.637004 
L 504.027418 600.673377 
L 757.199825 600.673377 
L 757.221139 24.637004 
L 757.306396 600.673377 
L 1141.2 600.673377 
L 1141.2 600.673377 
" style="fill:none;stroke:#1f77b4;stroke-linecap:square;stroke-width:2;"/>
   </g>
   <g id="line2d_26">
    <path clip-path="url(#pb266e856ef)" d="M 75.501467 600.673377 
L 252.027302 600.673377 
L 252.048617 24.637004 
L 252.133874 600.673377 
L 1141.2 600.673377 
L 1141.2 600.673377 
" style="fill:none;stroke:#ff7f0e;stroke-linecap:square;stroke-width:2;"/>
   </g>
   <g id="line2d_27">
    <path clip-path="url(#pb266e856ef)" d="M 75.501467 600.673377 
L 135.224407 600.673377 
L 135.245721 24.637004 
L 135.330979 600.673377 
L 209.16405 600.673377 
L 209.185364 24.637004 
L 209.270622 600.673377 
L 314.329285 600.673377 
L 314.350599 24.637004 
L 314.435857 600.673377 
L 495.864003 600.673377 
L 495.885318 24.637004 
L 495.970575 600.673377 
L 1027.104033 600.673377 
L 1027.125348 24.637004 
L 1027.210605 600.673377 
L 1141.2 600.673377 
L 1141.2 600.673377 
" style="fill:none;stroke:#2ca02c;stroke-linecap:square;stroke-width:2;"/>
   </g>
   <g id="line2d_28">
    <path clip-path="url(#pb266e856ef)" d="M 75.501467 600.673377 
L 239.984668 600.673377 
L 240.005982 24.637004 
L 240.09124 600.673377 
L 440.744973 600.673377 
L 440.766287 24.637004 
L 440.851545 600.673377 
L 926.286936 600.673377 
L 926.30825 24.637004 
L 926.393508 600.673377 
L 1141.2 600.673377 
L 1141.2 600.673377 
" style="fill:none;stroke:#d62728;stroke-linecap:square;stroke-width:2;"/>
   </g>
   <g id="line2d_29">
    <path clip-path="url(#pb266e856ef)" d="M 75.501467 600.673377 
L 204.346996 600.673377 
L 204.368311 24.637004 
L 204.453568 600.673377 
L 534.400433 600.673377 
L 534.421748 24.637004 
L 534.507005 600.673377 
L 1141.2 600.673377 
L 1141.2 600.673377 
" style="fill:none;stroke:#9467bd;stroke-linecap:square;stroke-width:2;"/>
   </g>
   <g id="line2d_30">
    <path clip-path="url(#pb266e856ef)" d="M 75.501467 600.673377 
L 1141.2 600.673377 
L 1141.2 600.673377 
" style="fill:none;stroke:#8c564b;stroke-linecap:square;stroke-width:2;"/>
   </g>
   <g id="line2d_31">
    <path clip-path="url(#pb266e856ef)" d="M 75.501467 600.673377 
L 103.508584 600.673377 
L 103.529899 24.637004 
L 103.615156 600.673377 
L 140.020146 600.673377 
L 140.041461 24.637004 
L 140.126718 600.673377 
L 189.235089 600.673377 
L 189.256403 24.637004 
L 189.341661 600.673377 
L 259.998887 600.673377 
L 260.020201 24.637004 
L 260.105459 600.673377 
L 376.375494 600.673377 
L 376.396809 24.637004 
L 376.482066 600.673377 
L 654.443117 600.673377 
L 654.464431 24.637004 
L 654.549689 600.673377 
L 1141.2 600.673377 
L 1141.2 600.673377 
" style="fill:none;stroke:#e377c2;stroke-linecap:square;stroke-width:2;"/>
   </g>
   <g id="line2d_32">
    <path clip-path="url(#pb266e856ef)" d="M 75.501467 600.673377 
L 133.412683 600.673377 
L 133.433998 24.637004 
L 133.519255 600.673377 
L 205.860319 600.673377 
L 205.881633 24.637004 
L 205.966891 600.673377 
L 310.76978 600.673377 
L 310.791095 24.637004 
L 310.876352 600.673377 
L 497.483898 600.673377 
L 497.505212 24.637004 
L 497.59047 600.673377 
L 1060.375807 600.673377 
L 1060.397121 24.637004 
L 1060.482379 600.673377 
L 1141.2 600.673377 
L 1141.2 600.673377 
" style="fill:none;stroke:#7f7f7f;stroke-linecap:square;stroke-width:2;"/>
   </g>
   <g id="line2d_33">
    <path clip-path="url(#pb266e856ef)" d="M 75.501467 600.673377 
L 495.437716 600.673377 
L 495.45903 24.637004 
L 495.544288 600.673377 
L 1141.2 600.673377 
L 1141.2 600.673377 
" style="fill:none;stroke:#bcbd22;stroke-linecap:square;stroke-width:2;"/>
   </g>
   <g id="line2d_34">
    <path clip-path="url(#pb266e856ef)" d="M 75.501467 600.673377 
L 563.85693 600.673377 
L 563.878244 24.637004 
L 563.963502 600.673377 
L 1141.2 600.673377 
L 1141.2 600.673377 
" style="fill:none;stroke:#17becf;stroke-linecap:square;stroke-width:2;"/>
   </g>
   <g id="line2d_35">
    <path clip-path="url(#pb266e856ef)" d="M 75.501467 600.673377 
L 255.565492 600.673377 
L 255.586807 24.637004 
L 255.672064 600.673377 
L 504.027418 600.673377 
L 504.048732 24.637004 
L 504.133989 600.673377 
L 1141.2 600.673377 
L 1141.2 600.673377 
" style="fill:none;stroke:#1f77b4;stroke-linecap:square;stroke-width:2;"/>
   </g>
   <g id="patch_3">
    <path d="M 75.501467 600.673377 
L 75.501467 24.637004 
" style="fill:none;stroke:#000000;stroke-linecap:square;stroke-linejoin:miter;stroke-width:0.8;"/>
   </g>
   <g id="patch_4">
    <path d="M 1141.2 600.673377 
L 1141.2 24.637004 
" style="fill:none;stroke:#000000;stroke-linecap:square;stroke-linejoin:miter;stroke-width:0.8;"/>
   </g>
   <g id="patch_5">
    <path d="M 75.501467 600.673377 
L 1141.2 600.673377 
" style="fill:none;stroke:#000000;stroke-linecap:square;stroke-linejoin:miter;stroke-width:0.8;"/>
   </g>
   <g id="patch_6">
    <path d="M 75.501467 24.637004 
L 1141.2 24.637004 
" style="fill:none;stroke:#000000;stroke-linecap:square;stroke-linejoin:miter;stroke-width:0.8;"/>
   </g>
  </g>
 </g>
 <defs>
  <clipPath id="pb266e856ef">
   <rect height="576.036373" width="1065.698533" x="75.501467" y="24.637004"/>
  </clipPath>
 </defs>
</svg>
